<svg xmlns="http://www.w3.org/2000/svg" viewBox="0 0 500 400">
  <!-- Background Circle -->
  <circle cx="250" cy="200" r="150" fill="#f8f9fa" stroke="#e9ecef" stroke-width="10"/>
  
  <!-- Clock Face -->
  <circle cx="250" cy="200" r="130" fill="none" stroke="#dee2e6" stroke-width="8"/>
  
  <!-- Clock Numbers -->
  <text x="250" y="95" text-anchor="middle" font-size="24" fill="#495057">12</text>
  <text x="355" y="205" text-anchor="middle" font-size="24" fill="#495057">3</text>
  <text x="250" y="315" text-anchor="middle" font-size="24" fill="#495057">6</text>
  <text x="145" y="205" text-anchor="middle" font-size="24" fill="#495057">9</text>
  
  <!-- Clock Markers -->
  <g stroke="#adb5bd" stroke-width="4">
    <!-- Hours -->
    <line x1="250" y1="90" x2="250" y2="110" transform="rotate(30 250 200)"/>
    <line x1="250" y1="90" x2="250" y2="110" transform="rotate(60 250 200)"/>
    <line x1="250" y1="90" x2="250" y2="110" transform="rotate(120 250 200)"/>
    <line x1="250" y1="90" x2="250" y2="110" transform="rotate(150 250 200)"/>
    <line x1="250" y1="90" x2="250" y2="110" transform="rotate(210 250 200)"/>
    <line x1="250" y1="90" x2="250" y2="110" transform="rotate(240 250 200)"/>
    <line x1="250" y1="90" x2="250" y2="110" transform="rotate(300 250 200)"/>
    <line x1="250" y1="90" x2="250" y2="110" transform="rotate(330 250 200)"/>
  </g>
  
  <!-- Clock Hands -->
  <!-- Hour hand pointing to 12 -->
  <line x1="250" y1="200" x2="250" y2="140" 
        stroke="#495057" stroke-width="6" 
        stroke-linecap="round"
        transform="rotate(0 250 200)">
    <animate attributeName="transform" 
             from="rotate(0 250 200)" 
             to="rotate(360 250 200)" 
             dur="12s" 
             repeatCount="indefinite"/>
  </line>
  
  <!-- Minute hand pointing to expired time -->
  <line x1="250" y1="200" x2="250" y2="120" 
        stroke="#dc3545" stroke-width="4" 
        stroke-linecap="round"
        transform="rotate(360 250 200)">
    <animate attributeName="transform" 
             from="rotate(0 250 200)" 
             to="rotate(360 250 200)" 
             dur="1s" 
             repeatCount="indefinite"/>
  </line>
  
  <!-- Center Dot -->
  <circle cx="250" cy="200" r="8" fill="#343a40"/>
  
  <!-- Warning Symbol -->
  <g transform="translate(380, 80) scale(0.8)">
    <!-- Warning Triangle -->
    <path d="M 0,-50 L 43,25 L -43,25 Z" 
          fill="#ffd700" 
          stroke="#ffc107" 
          stroke-width="5"
          transform="rotate(0)">
      <animate attributeName="transform" 
               values="rotate(0);rotate(5);rotate(-5);rotate(0)" 
               dur="0.5s" 
               repeatCount="indefinite"/>
    </path>
    <!-- Exclamation Mark -->
    <text x="0" y="15" 
          text-anchor="middle" 
          font-size="45" 
          font-weight="bold" 
          fill="#343a40">!</text>
  </g>
  
  <!-- Expired Text -->
  <text x="250" y="380" 
        text-anchor="middle" 
        font-family="Arial, sans-serif" 
        font-size="40" 
        font-weight="bold" 
        fill="#dc3545">
    EXPIRED
    <animate attributeName="opacity" 
             values="1;0.3;1" 
             dur="2s" 
             repeatCount="indefinite"/>
  </text>
  
  <!-- Red X Mark -->
  <g transform="translate(120, 80) scale(0.8)" stroke="#dc3545" stroke-width="8">
    <line x1="-20" y1="-20" x2="20" y2="20" stroke-linecap="round">
      <animate attributeName="stroke-width" 
               values="8;10;8" 
               dur="1s" 
               repeatCount="indefinite"/>
    </line>
    <line x1="-20" y1="20" x2="20" y2="-20" stroke-linecap="round">
      <animate attributeName="stroke-width" 
               values="8;10;8" 
               dur="1s" 
               repeatCount="indefinite"/>
    </line>
  </g>
</svg>