<svg width="400" height="400" xmlns="http://www.w3.org/2000/svg" viewBox="0 0 400 400">
  <!-- Đế quà lưu niệm -->
  <path d="M50 330 Q110 290, 350 290 Q370 290, 370 330 Q370 350, 350 350 H50 Q30 350, 30 330 Z" 
        fill="url(#base_gradient)" />

  <!-- Hộp quà -->
  <rect x="90" y="200" width="220" height="130" rx="10" ry="10" fill="url(#box_gradient)" />

  <!-- Nắp hộp -->
  <rect x="80" y="180" width="240" height="40" rx="8" ry="8" fill="url(#lid_gradient)" />

  <!-- Dây nơ ngang -->
  <rect x="170" y="180" width="20" height="150" fill="url(#ribbon_gradient)" />

  <!-- Dây nơ dọc -->
  <rect x="90" y="240" width="220" height="20" fill="url(#ribbon_gradient)" />

  <!-- Nơ trên nắp -->
  <circle cx="180" cy="180" r="10" fill="url(#bow_gradient)" />
  <circle cx="220" cy="180" r="10" fill="url(#bow_gradient)" />
  <path d="M180 180 Q200 160, 220 180 Q200 200, 180 180 Z" fill="url(#bow_gradient)" />

  <!-- Các chi tiết khác -->
  <circle cx="150" cy="240" r="5" fill="#ffffff" />
  <circle cx="250" cy="240" r="5" fill="#ffffff" />
  <path d="M120 280 Q200 220, 280 280" stroke="#004d73" stroke-width="4" fill="none" />

  <!-- Các hiệu ứng gradient -->
  <defs>
    <linearGradient id="base_gradient" x1="0" y1="0" x2="1" y2="1">
      <stop offset="0%" stop-color="#a8e6cf" />
      <stop offset="100%" stop-color="#dcedc1" />
    </linearGradient>
    <linearGradient id="box_gradient" x1="0" y1="0" x2="1" y2="1">
      <stop offset="0%" stop-color="#81c784" />
      <stop offset="100%" stop-color="#a5d6a7" />
    </linearGradient>
    <linearGradient id="lid_gradient" x1="0" y1="0" x2="1" y2="1">
      <stop offset="0%" stop-color="#66bb6a" />
      <stop offset="100%" stop-color="#81c784" />
    </linearGradient>
    <linearGradient id="ribbon_gradient" x1="0" y1="0" x2="1" y2="1">
      <stop offset="0%" stop-color="#388e3c" />
      <stop offset="100%" stop-color="#43a047" />
    </linearGradient>
    <linearGradient id="bow_gradient" x1="0" y1="0" x2="1" y2="1">
      <stop offset="0%" stop-color="#2e7d32" />
      <stop offset="100%" stop-color="#388e3c" />
    </linearGradient>
  </defs>
</svg>
